<svg width="155" height="36" viewBox="0 0 155 36" fill="none" xmlns="http://www.w3.org/2000/svg">
<path d="M17.6033 25.5248H9.90491C9.73822 25.5258 9.57159 25.5178 9.40575 25.5009C8.57679 25.4174 8.17865 25.0417 8.12219 24.2096C8.039 23.0168 8.12219 21.8477 8.0806 20.6698C8.0806 20.3716 8.16082 20.3179 8.43417 20.3209C10.4189 20.3209 12.4037 20.3209 14.3766 20.3209C15.1223 20.3209 15.3957 20.0435 15.3957 19.2831V15.1348C15.3957 14.267 15.158 14.0254 14.3053 14.0254H8.39852C8.25293 14.0254 8.0806 14.0761 8.08654 13.8167C8.10734 12.7192 8.03603 11.6218 8.12219 10.5363C8.18756 9.68931 8.59461 9.27181 9.44438 9.25093C10.8795 9.21514 12.3175 9.25093 13.7556 9.25093V9.22409H17.7132C18.4174 9.22409 18.7115 8.92587 18.7115 8.23102C18.7115 6.73992 18.7115 5.24882 18.7115 3.75772C18.7115 3.0062 18.56 2.80938 17.8202 2.71395C16.7951 2.56782 15.779 2.46643 14.7628 2.38591C13.5327 2.27556 12.2997 2.23978 11.0637 2.21592C9.22445 2.12947 7.38237 2.30824 5.59371 2.74675C3.57329 3.30144 1.94508 4.38696 0.979442 6.32539C0.306003 7.74983 -0.0286291 9.31178 0.00191843 10.8882C0.00191843 15.111 0.00191843 19.3337 0.00191843 23.5595C-0.00475351 24.4169 0.0648506 25.2733 0.209902 26.1183C0.679351 28.7396 1.99262 30.6959 4.53893 31.7069C5.56296 32.0958 6.63596 32.3397 7.72703 32.4316C9.18283 32.5488 10.6444 32.5767 12.1036 32.5151C14.0511 32.499 15.9946 32.3375 17.9182 32.032C18.5422 31.9097 18.7204 31.7009 18.7204 31.0657C18.7204 29.5865 18.7204 28.1074 18.7204 26.6282C18.7204 25.7842 18.453 25.5248 17.6033 25.5248Z" fill="white"/>
<path d="M90.1988 3.6115C90.1988 2.9077 89.9403 2.64526 89.2331 2.64526H69.6649C68.9607 2.64526 68.6992 2.91068 68.6992 3.61746V8.16233C68.6992 8.96156 68.9429 9.2061 69.7391 9.2061C71.5219 9.2061 73.3283 9.2061 75.1229 9.2061C75.4409 9.2061 75.53 9.27768 75.53 9.6087C75.5181 16.7063 75.5181 23.802 75.53 30.8956C75.53 30.9911 75.53 31.0865 75.53 31.1939C75.5627 31.7903 75.8717 32.0885 76.4748 32.0885H82.5004C83.2046 32.0885 83.4898 31.7903 83.4898 31.0954V20.3595C83.4898 16.757 83.4898 13.1555 83.4898 9.55502C83.4898 9.28066 83.5522 9.19716 83.8375 9.20014C85.6202 9.20014 87.4237 9.20014 89.2183 9.20014C89.9522 9.20014 90.2107 8.94367 90.2107 8.21899L90.1988 3.6115Z" fill="white"/>
<path d="M64.8278 2.6394C62.3816 2.6394 59.9343 2.6394 57.486 2.6394C57.1681 2.6394 57.1057 2.71992 57.1057 3.03007C57.1057 7.82346 57.1057 12.6168 57.1057 17.4102C57.1057 22.2036 57.1057 26.997 57.1057 31.7904C57.1057 32.0886 57.177 32.1572 57.4712 32.1542C59.9313 32.1423 62.3905 32.1423 64.8486 32.1542C65.0953 32.1542 65.1636 32.0946 65.1636 31.856C65.1636 22.2354 65.1636 12.6129 65.1636 2.98832C65.1666 2.68414 65.0893 2.6394 64.8278 2.6394Z" fill="white"/>
<path d="M49.5764 24.7523C48.2572 22.5514 46.933 20.3426 45.6039 18.1259L45.5147 18.2422C43.6072 21.3894 41.6987 24.5396 39.7893 27.6928C39.7414 27.7653 39.7195 27.852 39.727 27.9386C39.7346 28.0253 39.7712 28.1068 39.8309 28.1699C40.6687 29.5387 41.4977 30.9105 42.3356 32.2794C42.7397 32.9384 43.1111 33.6154 43.5627 34.2446C43.6941 34.4494 43.8771 34.6156 44.0931 34.7266C44.3091 34.8376 44.5504 34.8895 44.7927 34.8769C47.8679 34.853 50.9461 34.8769 54.0213 34.8769C54.2114 34.8769 54.4016 34.8769 54.5917 34.8769C54.663 34.8765 54.7335 34.862 54.7992 34.8341C54.8648 34.8063 54.9243 34.7657 54.9743 34.7147C55.0243 34.6637 55.0637 34.6033 55.0904 34.537C55.117 34.4706 55.1303 34.3997 55.1295 34.3281C55.127 34.0639 55.0371 33.8079 54.874 33.6005L49.5764 24.7523Z" fill="white"/>
<path d="M41.7144 10.2977L45.5769 16.7124L45.7314 16.4649L54.9421 1.11252C55.0877 0.870964 55.2393 0.63537 55.061 0.352061C54.8827 0.0687524 54.6183 0.0747168 54.339 0.0747168C51.2014 0.0747168 48.0648 0.0747168 44.9292 0.0747168C44.8222 0.0747168 44.7004 0.0747168 44.6143 0.0747168H44.4687C44.3096 0.082946 44.1545 0.128179 44.0158 0.206846C43.8771 0.285513 43.7585 0.39546 43.6694 0.528011C43.2356 1.16024 42.4809 2.34119 42.3829 2.50521C41.1766 4.48539 41.0488 4.70011 39.8366 6.68029C39.7823 6.75544 39.7543 6.84651 39.757 6.9393C39.7597 7.03208 39.7929 7.12136 39.8514 7.19323C40.4635 8.2191 41.0875 9.24498 41.7144 10.2977Z" fill="white"/>
<path d="M25.4238 25.5843C27.0402 22.9202 28.6684 20.2631 30.3085 17.6129C30.3661 17.5417 30.3976 17.4527 30.3976 17.3609C30.3976 17.2691 30.3661 17.1802 30.3085 17.1089C28.6486 14.4607 26.9946 11.8076 25.3466 9.14943C25.2811 9.0292 25.1829 8.93007 25.0635 8.86357C24.9442 8.79706 24.8084 8.76589 24.6721 8.77367C23.864 8.77367 23.0558 8.77367 22.2476 8.77367H19.7964C19.6716 8.77367 19.523 8.73192 19.4458 8.87507C19.3685 9.01821 19.4963 9.09873 19.5528 9.19118C21.0027 11.6306 22.4408 14.0909 23.9561 16.5006C24.3572 17.1447 24.3483 17.5861 23.9561 18.2272C22.4705 20.6309 21.0413 23.0793 19.5973 25.5128C19.3002 26.0138 19.4101 26.2046 19.9836 26.2046C21.4335 26.2046 22.8835 26.1778 24.3334 26.2046C24.5559 26.2213 24.7784 26.1713 24.9726 26.0608C25.1667 25.9504 25.3238 25.7845 25.4238 25.5843Z" fill="#BD0303"/>
<path d="M44.0393 17.2247C41.2154 12.6198 38.3914 8.01484 35.5675 3.40991C34.9926 2.4699 34.4631 1.50287 33.8217 0.619925C33.6917 0.421099 33.5117 0.259423 33.2994 0.15091C33.0871 0.0423964 32.85 -0.00918911 32.6114 0.00126269C29.495 0.019282 26.3847 0.00126269 23.2743 0.00126269C23.0716 0.00126269 22.881 0.00126269 22.6692 0.019282C22.5837 0.0196218 22.4995 0.0391618 22.4228 0.0764357C22.346 0.11371 22.2788 0.16775 22.2261 0.234501C22.1734 0.301253 22.1366 0.378982 22.1185 0.461858C22.1004 0.544734 22.1014 0.630603 22.1215 0.713024C22.1591 0.818491 22.2088 0.919273 22.2698 1.01335C25.5294 6.41913 28.7911 11.8299 32.0547 17.2457C32.1166 17.3236 32.1502 17.4199 32.1502 17.519C32.1502 17.6182 32.1166 17.7144 32.0547 17.7923C31.5222 18.6692 31.0078 19.5492 30.4935 20.4231L22.2789 34.0337C22.1034 34.334 21.9763 34.6103 22.1548 34.9346C22.3333 35.259 22.6419 35.235 22.9506 35.235H27.7704C29.2227 35.235 30.6781 35.1689 32.1243 35.256C32.5571 35.3164 32.9978 35.2308 33.3758 35.013C33.7538 34.7952 34.0472 34.4577 34.209 34.0547C34.2351 34.0004 34.2655 33.9482 34.2997 33.8985C37.513 28.5588 40.7605 23.2391 44.0423 17.9395C44.119 17.8357 44.1601 17.7103 44.1596 17.5816C44.159 17.4529 44.1169 17.3278 44.0393 17.2247ZM40.8805 17.8704C39.1458 20.6093 37.4464 23.3713 35.7823 26.1562C35.7079 26.3 35.5924 26.4188 35.4504 26.4979C35.3083 26.5769 35.1459 26.6127 34.9835 26.6007C33.4707 26.6007 31.9851 26.6007 30.4844 26.6007C30.2666 26.6007 30.085 26.6007 29.964 26.3665C29.9132 26.2716 29.8918 26.164 29.9025 26.0571C29.9133 25.9501 29.9558 25.8488 30.0245 25.7658C31.6221 23.123 33.2176 20.4802 34.8111 17.8373C34.8832 17.7455 34.9224 17.6324 34.9224 17.516C34.9224 17.3996 34.8832 17.2865 34.8111 17.1947C33.1974 14.5799 31.5837 11.9591 29.9701 9.33225C29.9095 9.23314 29.7855 9.13704 29.8551 9.01391C29.9247 8.89077 30.076 8.95084 30.1909 8.95084C31.0139 8.95084 31.8369 8.95084 32.6599 8.95084C33.4828 8.95084 34.3058 8.95084 35.1288 8.95084C35.2611 8.94056 35.3936 8.96821 35.5105 9.0305C35.6274 9.09279 35.7239 9.1871 35.7884 9.30221C37.4767 11.9991 39.167 14.702 40.8593 17.4109C40.911 17.4756 40.9408 17.5548 40.9446 17.6372C40.9484 17.7197 40.926 17.8013 40.8805 17.8704Z" fill="#BD0303"/>
<path d="M153.515 16.7689C152.92 16.7689 152.35 16.7689 151.768 16.7689C151.675 16.7594 151.582 16.7692 151.494 16.7977C151.405 16.8261 151.324 16.8727 151.254 16.9343C151.185 16.9959 151.129 17.0714 151.09 17.1558C151.051 17.2403 151.03 17.3319 151.028 17.425C151.009 17.5664 151.001 17.7089 151.004 17.8514C151.004 21.4301 151.004 24.9849 151.004 28.5516C151.004 28.8677 150.909 28.9482 150.618 28.9691C149.037 29.1162 147.451 29.1819 145.864 29.1659C143.43 29.0973 141.648 27.9551 140.542 25.7722C139.822 24.2853 139.445 22.6542 139.44 21.0006C139.387 18.937 139.41 16.8733 139.407 14.8126C139.378 13.3015 139.57 11.7942 139.978 10.3393C140.896 7.28253 143.104 5.62741 146.277 5.62443C148.143 5.62443 150.009 5.62443 151.869 5.73477C152.534 5.77354 153.197 5.82424 153.859 5.863C154.421 5.89879 154.534 5.78845 154.534 5.23376C154.534 4.67907 154.534 4.13631 154.534 3.58759C154.542 3.50677 154.534 3.42501 154.509 3.34762C154.485 3.27024 154.444 3.19898 154.39 3.13849C154.336 3.07799 154.269 3.02962 154.195 2.99652C154.121 2.96343 154.041 2.94636 153.96 2.94641C152.596 2.75555 151.236 2.55873 149.857 2.48716C147.926 2.38576 145.995 2.22174 144.069 2.58855C141.172 3.14622 138.911 4.62837 137.461 7.25271C136.418 9.21742 135.871 11.4085 135.866 13.6346C135.803 16.0204 135.824 18.427 135.848 20.8247C135.851 22.5202 136.143 24.2027 136.712 25.799C137.827 28.8766 139.865 31.0119 143.035 31.9722C144.405 32.3867 145.813 32.4046 147.231 32.3807C149.379 32.3657 151.524 32.1933 153.648 31.8648C154.388 31.7425 154.593 31.5129 154.593 30.7495V17.8693C154.59 17.0373 154.329 16.7689 153.515 16.7689Z" fill="#BD0303"/>
<path d="M109.558 29.0794H102.323C101.705 29.0979 101.086 29.07 100.472 28.9959C100.143 28.9559 99.8169 28.8961 99.4949 28.817C98.1549 28.4591 97.525 27.639 97.415 26.1837C97.3437 25.289 97.3616 24.3944 97.3616 23.4997C97.3616 16.8554 97.3616 10.212 97.3616 3.56969C97.3616 2.86589 97.0644 2.58258 96.3662 2.58258H94.7826C94.0635 2.58258 93.71 2.94641 93.71 3.65915V25.131C93.7088 25.8816 93.7794 26.6306 93.9209 27.3676C94.3844 29.7087 95.7036 31.2952 98.0123 31.9811C99.0072 32.2652 100.035 32.4156 101.07 32.4284C102.615 32.4642 104.157 32.4553 105.702 32.3927C107.03 32.3694 108.357 32.2698 109.674 32.0944C110.099 32.0258 110.239 31.8559 110.242 31.4264C110.242 30.8777 110.242 30.329 110.242 29.7802C110.242 29.2315 110.111 29.0794 109.558 29.0794Z" fill="#BD0303"/>
<path d="M133.845 27.9493C131.736 20.4501 129.625 12.9508 127.514 5.45158C126.973 3.53999 125.79 2.56779 123.85 2.4157C121.634 2.23975 120.038 3.31036 119.468 5.34422C117.962 10.6883 116.457 16.0344 114.951 21.3825C114.03 24.645 113.108 27.9066 112.185 31.1671C112.01 31.7814 112.23 32.1214 112.866 32.1303C113.591 32.1303 114.316 32.1303 115.041 32.1303C115.227 32.1481 115.413 32.0924 115.56 31.975C115.706 31.8576 115.801 31.6876 115.825 31.5011C116.629 28.5905 117.431 25.6779 118.232 22.7633C118.236 22.7071 118.253 22.6525 118.28 22.6031C118.307 22.5538 118.345 22.5107 118.389 22.4766C118.434 22.4426 118.486 22.4184 118.54 22.4056C118.595 22.3929 118.652 22.3918 118.707 22.4024C121.857 22.4163 125.006 22.4163 128.155 22.4024C128.213 22.3918 128.272 22.3933 128.329 22.4068C128.386 22.4203 128.44 22.4454 128.487 22.4807C128.534 22.516 128.573 22.5607 128.602 22.6118C128.631 22.663 128.649 22.7197 128.655 22.7782C129.46 25.6798 130.283 28.5726 131.103 31.4683C131.246 31.9782 131.442 32.1274 131.965 32.1333C132.297 32.1333 132.63 32.1333 132.963 32.1333H134.211C134.31 32.1341 134.407 32.1113 134.495 32.0666C134.584 32.022 134.66 31.9569 134.718 31.8767C134.776 31.7965 134.814 31.7035 134.829 31.6055C134.845 31.5075 134.836 31.4073 134.805 31.3132C134.487 30.1889 134.163 29.0706 133.845 27.9493ZM127.309 19.3218H123.363C122.032 19.3218 120.689 19.3218 119.37 19.3218C119.111 19.3218 119.019 19.2979 119.105 18.9997C120.294 14.7869 121.467 10.571 122.626 6.3522C122.727 5.98837 122.879 5.67524 123.286 5.59472C123.693 5.51421 124.011 5.72296 124.15 6.19116C124.421 7.12758 124.673 8.06995 124.929 9.01233C125.828 12.3166 126.727 15.6149 127.627 18.9073C127.742 19.3218 127.742 19.3218 127.321 19.3218H127.309Z" fill="#BD0303"/>
</svg>
